<svg xmlns="http://www.w3.org/2000/svg" xmlns:xlink="http://www.w3.org/1999/xlink" width="500" zoomAndPan="magnify" viewBox="0 0 375 374.999991" height="500" preserveAspectRatio="xMidYMid meet" version="1.0"><defs><g/></defs><rect x="-37.5" width="450" fill="#ffffff" y="-37.499999" height="449.999989" fill-opacity="1"/><rect x="-37.5" width="450" fill="#222222" y="-37.499999" height="449.999989" fill-opacity="1"/><g fill="#d9d9d9" fill-opacity="1"><g transform="translate(65.447218, 194.649137)"><g><path d="M -1.386719 -32.398438 C -1.289062 -31.253906 -0.554688 -30.65625 0.507812 -30.746094 L 8.765625 -31.441406 L 11.1875 -2.699219 C 11.277344 -1.609375 11.988281 -1.011719 13.105469 -1.105469 L 22.066406 -1.859375 C 23.183594 -1.953125 23.757812 -2.660156 23.664062 -3.75 L 21.242188 -32.492188 L 29.605469 -33.199219 C 30.695312 -33.289062 31.289062 -34.054688 31.199219 -35.144531 L 30.582031 -42.472656 C 30.488281 -43.5625 29.777344 -44.1875 28.6875 -44.097656 L -0.410156 -41.644531 C -1.5 -41.550781 -2.097656 -40.84375 -2.003906 -39.726562 Z M -1.386719 -32.398438 "/></g></g></g><g fill="#d9d9d9" fill-opacity="1"><g transform="translate(100.700113, 191.678051)"><g><path d="M 33.578125 -14.738281 L 15.050781 -13.175781 L 14.746094 -16.800781 L 28.148438 -17.929688 C 29.402344 -18.035156 30.105469 -18.808594 30.011719 -19.925781 L 29.542969 -25.484375 C 29.441406 -26.683594 28.621094 -27.296875 27.367188 -27.191406 L 13.964844 -26.0625 L 13.558594 -30.886719 L 32.222656 -32.457031 C 33.335938 -32.550781 33.933594 -33.289062 33.839844 -34.40625 L 33.140625 -42.6875 C 33.050781 -43.777344 32.339844 -44.402344 31.222656 -44.308594 L 1.824219 -41.832031 C 0.707031 -41.738281 0.109375 -41.03125 0.203125 -39.914062 L 3.398438 -2.015625 C 3.484375 -0.980469 4.195312 -0.355469 5.3125 -0.449219 L 35.253906 -2.972656 C 36.316406 -3.0625 36.941406 -3.800781 36.855469 -4.835938 L 36.195312 -12.652344 C 36.078125 -14.042969 35.074219 -14.863281 33.578125 -14.738281 Z M 33.578125 -14.738281 "/></g></g></g><g fill="#d9d9d9" fill-opacity="1"><g transform="translate(140.36643, 188.335006)"><g><path d="M 50.445312 -6.035156 L 42.871094 -44.441406 C 42.640625 -45.546875 42.019531 -46.070312 40.984375 -45.984375 L 38.996094 -45.816406 C 37.851562 -45.71875 37.613281 -44.957031 37.148438 -43.988281 L 25.09375 -19.375 L 9.085938 -41.621094 C 8.464844 -42.5 8.101562 -43.210938 6.957031 -43.117188 L 4.96875 -42.949219 C 3.933594 -42.859375 3.410156 -42.242188 3.367188 -41.113281 L 2.328125 -1.980469 C 2.296875 -0.742188 3.132812 -0.265625 4.277344 -0.359375 L 13.351562 -1.125 C 14.414062 -1.214844 14.941406 -1.753906 14.953125 -2.933594 L 15.125 -14.554688 L 23.488281 -2.914062 C 24.296875 -1.773438 25.019531 -1.339844 26.054688 -1.425781 L 27.144531 -1.519531 C 28.179688 -1.605469 28.820312 -2.15625 29.429688 -3.414062 L 35.722656 -16.289062 L 37.839844 -4.863281 C 38.046875 -3.699219 38.660156 -3.257812 39.722656 -3.347656 L 48.796875 -4.113281 C 49.941406 -4.207031 50.683594 -4.820312 50.445312 -6.035156 Z M 50.445312 -6.035156 "/></g></g></g><g fill="#d9d9d9" fill-opacity="1"><g transform="translate(193.436475, 183.862305)"><g><path d="M 16.402344 -43.0625 L 10.761719 -42.585938 C 10.027344 -42.523438 8.390625 -42.386719 6.59375 -42.234375 L 1.796875 -41.832031 C 0.761719 -41.742188 0.117188 -40.949219 0.203125 -39.914062 L 3.398438 -2.015625 C 3.488281 -0.953125 4.167969 -0.351562 5.285156 -0.445312 L 14.195312 -1.195312 C 15.367188 -1.296875 15.988281 -2.035156 15.902344 -3.070312 L 15.386719 -9.171875 L 19.230469 -9.496094 C 30.101562 -10.410156 37.386719 -18.050781 36.566406 -27.777344 C 35.742188 -37.558594 27.269531 -43.976562 16.402344 -43.0625 Z M 17.4375 -20.320312 L 14.46875 -20.070312 L 13.480469 -31.8125 L 16.449219 -32.0625 C 20.589844 -32.410156 23.796875 -30.183594 24.082031 -26.777344 C 24.371094 -23.375 21.582031 -20.667969 17.4375 -20.320312 Z M 17.4375 -20.320312 "/></g></g></g><g fill="#d9d9d9" fill-opacity="1"><g transform="translate(233.702145, 180.468747)"><g><path d="M 41.988281 -5.433594 L 21.894531 -42.671875 C 21.4375 -43.539062 20.558594 -44.179688 19.550781 -44.09375 L 16.609375 -43.847656 C 15.710938 -43.769531 14.832031 -43.121094 14.457031 -42.046875 L 0.792969 -1.988281 C 0.398438 -0.828125 1.007812 -0.0859375 2.207031 -0.1875 L 12.125 -1.023438 C 13.214844 -1.113281 13.941406 -1.914062 14.171875 -2.785156 L 14.886719 -5.671875 L 27.5 -6.734375 L 28.695312 -3.980469 C 29.097656 -3.082031 30 -2.5 30.980469 -2.582031 L 40.925781 -3.421875 C 42.175781 -3.527344 42.542969 -4.410156 41.988281 -5.433594 Z M 17.222656 -15.089844 L 19.613281 -24.785156 L 23.625 -15.628906 Z M 17.222656 -15.089844 "/></g></g></g><g fill="#d9d9d9" fill-opacity="1"><g transform="translate(276.801125, 176.836399)"><g><path d="M -1.386719 -32.398438 C -1.289062 -31.253906 -0.554688 -30.65625 0.507812 -30.746094 L 8.765625 -31.441406 L 11.1875 -2.699219 C 11.277344 -1.609375 11.988281 -1.011719 13.105469 -1.105469 L 22.066406 -1.859375 C 23.183594 -1.953125 23.757812 -2.660156 23.664062 -3.75 L 21.242188 -32.492188 L 29.605469 -33.199219 C 30.695312 -33.289062 31.289062 -34.054688 31.199219 -35.144531 L 30.582031 -42.472656 C 30.488281 -43.5625 29.777344 -44.1875 28.6875 -44.097656 L -0.410156 -41.644531 C -1.5 -41.550781 -2.097656 -40.84375 -2.003906 -39.726562 Z M -1.386719 -32.398438 "/></g></g></g><g fill="#d9d9d9" fill-opacity="1"><g transform="translate(127.24721, 236.374347)"><g><path d="M 43.367188 -5.492188 L 26.636719 -29.800781 L 36.765625 -42.355469 C 37.617188 -43.382812 37.144531 -44.550781 35.890625 -44.453125 L 24.441406 -43.5625 C 23.269531 -43.46875 22.742188 -43.210938 21.96875 -42.21875 L 13.675781 -31.78125 L 12.925781 -41.402344 C 12.863281 -42.222656 12.339844 -42.617188 11.574219 -42.558594 L 1.570312 -41.78125 C 0.808594 -41.71875 0.351562 -41.246094 0.414062 -40.429688 L 3.445312 -1.53125 C 3.507812 -0.738281 4.035156 -0.3125 4.796875 -0.375 L 14.800781 -1.152344 C 15.566406 -1.210938 16.019531 -1.714844 15.957031 -2.503906 L 14.957031 -15.34375 L 18.558594 -19.792969 L 29.820312 -3.035156 C 30.265625 -2.605469 30.855469 -2.402344 31.539062 -2.457031 L 42.796875 -3.335938 C 43.996094 -3.429688 44.140625 -4.371094 43.367188 -5.492188 Z M 43.367188 -5.492188 "/></g></g></g><g fill="#d9d9d9" fill-opacity="1"><g transform="translate(170.940695, 232.96992)"><g><path d="M 42.023438 -5.167969 L 22.164062 -42.535156 C 21.710938 -43.402344 20.839844 -44.050781 19.828125 -43.96875 L 16.886719 -43.742188 C 15.984375 -43.671875 15.105469 -43.027344 14.722656 -41.953125 L 0.804688 -1.984375 C 0.402344 -0.828125 1.007812 -0.078125 2.207031 -0.171875 L 12.128906 -0.945312 C 13.21875 -1.03125 13.953125 -1.828125 14.1875 -2.695312 L 14.921875 -5.578125 L 27.542969 -6.5625 L 28.71875 -3.800781 C 29.117188 -2.898438 30.015625 -2.3125 30.996094 -2.386719 L 40.945312 -3.164062 C 42.199219 -3.261719 42.570312 -4.140625 42.023438 -5.167969 Z M 17.316406 -14.980469 L 19.769531 -24.660156 L 23.722656 -15.476562 Z M 17.316406 -14.980469 "/></g></g></g><g fill="#d9d9d9" fill-opacity="1"><g transform="translate(214.061776, 229.610093)"><g><path d="M 50.480469 -5.714844 L 43.152344 -44.167969 C 42.929688 -45.277344 42.3125 -45.804688 41.277344 -45.722656 L 39.285156 -45.570312 C 38.140625 -45.480469 37.898438 -44.71875 37.425781 -43.75 L 25.214844 -19.214844 L 9.347656 -41.5625 C 8.730469 -42.449219 8.375 -43.160156 7.230469 -43.070312 L 5.238281 -42.914062 C 4.203125 -42.835938 3.675781 -42.21875 3.628906 -41.089844 L 2.34375 -1.964844 C 2.300781 -0.726562 3.132812 -0.246094 4.28125 -0.332031 L 13.355469 -1.039062 C 14.417969 -1.125 14.953125 -1.660156 14.972656 -2.839844 L 15.21875 -14.460938 L 23.507812 -2.765625 C 24.308594 -1.621094 25.027344 -1.183594 26.0625 -1.261719 L 27.15625 -1.347656 C 28.191406 -1.429688 28.832031 -1.972656 29.449219 -3.226562 L 35.824219 -16.066406 L 37.867188 -4.625 C 38.070312 -3.460938 38.679688 -3.015625 39.742188 -3.097656 L 48.820312 -3.804688 C 49.964844 -3.894531 50.714844 -4.5 50.480469 -5.714844 Z M 50.480469 -5.714844 "/></g></g></g><g fill="#d9d9d9" fill-opacity="1"><g transform="translate(267.159036, 225.472961)"><g><path d="M 12.386719 -41.277344 C 12.324219 -42.097656 11.792969 -42.578125 11.03125 -42.515625 L 0.972656 -41.734375 C 0.261719 -41.679688 -0.160156 -41.125 -0.0976562 -40.304688 L 1.648438 -17.925781 C 2.527344 -6.640625 9.925781 -0.00390625 21.128906 -0.878906 C 32.171875 -1.738281 38.617188 -9.453125 37.734375 -20.765625 L 35.992188 -43.117188 C 35.929688 -43.9375 35.316406 -44.410156 34.445312 -44.339844 L 24.742188 -43.585938 C 23.921875 -43.519531 23.445312 -42.964844 23.507812 -42.144531 L 25.261719 -19.65625 C 25.554688 -15.894531 23.589844 -13.328125 20.179688 -13.0625 C 16.609375 -12.785156 14.433594 -15.027344 14.140625 -18.789062 Z M 12.386719 -41.277344 "/></g></g></g><g fill="#d9d9d9" fill-opacity="1"><g transform="translate(309.298853, 222.189589)"><g><path d="M 8.46875 0.300781 C 11.933594 0.03125 14.519531 -3.023438 14.25 -6.484375 C 13.976562 -9.972656 10.949219 -12.5625 7.488281 -12.292969 C 3.972656 -12.019531 1.382812 -8.992188 1.65625 -5.503906 C 1.925781 -2.042969 4.953125 0.574219 8.46875 0.300781 Z M 8.46875 0.300781 "/></g></g></g><g fill="#d9d9d9" fill-opacity="1"><g transform="translate(84.258503, 224.21494)"><g><path d="M -0.464844 -14.0625 C -0.367188 -12.988281 0.398438 -12.222656 1.265625 -12.300781 C 1.410156 -12.3125 1.460938 -12.328125 1.5 -12.339844 C 1.523438 -12.300781 1.558594 -12.246094 1.570312 -12.152344 C 1.589844 -11.90625 1.21875 -11.226562 0.984375 -10.730469 C 0.847656 -10.421875 0.898438 -10.09375 1.109375 -10.011719 L 2.160156 -9.558594 C 2.40625 -9.445312 2.695312 -9.535156 2.820312 -9.773438 C 3.558594 -11.195312 3.894531 -12.296875 3.742188 -14.011719 C 3.621094 -15.371094 2.566406 -16.347656 1.382812 -16.242188 C 0.226562 -16.140625 -0.5625 -15.175781 -0.464844 -14.0625 Z M -0.464844 -14.0625 "/></g></g></g><g fill="#d9d9d9" fill-opacity="1"><g transform="translate(89.988489, 223.707155)"><g><path d="M 14.121094 -16.886719 L 10.382812 -16.558594 C 10.085938 -16.53125 9.925781 -16.351562 9.953125 -16.046875 L 10.535156 -9.476562 L 1.46875 -15.621094 C 1.128906 -15.851562 0.96875 -16.03125 0.621094 -16 L 0.394531 -15.980469 C 0.109375 -15.957031 -0.0585938 -15.777344 -0.03125 -15.46875 L 1.285156 -0.585938 C 1.3125 -0.292969 1.511719 -0.132812 1.796875 -0.160156 L 5.546875 -0.492188 C 5.832031 -0.515625 6 -0.707031 5.972656 -1.003906 L 5.425781 -7.203125 L 14.253906 -1.542969 C 14.613281 -1.304688 14.835938 -1.027344 15.222656 -1.0625 L 15.519531 -1.085938 C 15.804688 -1.113281 15.972656 -1.300781 15.949219 -1.597656 L 14.632812 -16.460938 C 14.605469 -16.746094 14.414062 -16.914062 14.121094 -16.886719 Z M 14.121094 -16.886719 "/></g></g></g></svg>